<svg viewBox="0 0 980 500" xmlns="http://www.w3.org/2000/svg" role="img" aria-labelledby="sf-t sf-d" font-family="-apple-system, 'Segoe UI', 'Helvetica Neue', Arial, sans-serif">
<title id="sf-t">Laplas system figure — compile, tables, query</title>
<desc id="sf-d">Panel a: compile turns text into a typed graph. Panel b: the graph materializes as tables inside one laplaspack file. Panel c: a find query executes over sqlite in three numbered hops — fts match, select entities, walk edges — returning cards that a compose step cites.</desc>
<defs>
<marker id="a2" viewBox="0 0 10 10" refX="8" refY="5" markerWidth="6.5" markerHeight="6.5" orient="auto-start-reverse"><path d="M0 0L10 5L0 10z" fill="#6b7280"/></marker>
</defs>
<rect width="980" height="500" fill="#ffffff"/>

<text x="150" y="26" text-anchor="middle" fill="#6b7280" font-size="12">(a) compile</text>
<text x="490" y="26" text-anchor="middle" fill="#6b7280" font-size="12">(b) .laplaspack</text>
<text x="810" y="26" text-anchor="middle" fill="#6b7280" font-size="12">(c) recall</text>

<rect x="100" y="42" width="100" height="50" rx="6" fill="#fafafa" stroke="#e5e7eb"/>
<line x1="112" y1="56" x2="188" y2="56" stroke="#9ca3af"/>
<line x1="112" y1="67" x2="188" y2="67" stroke="#9ca3af"/>
<line x1="112" y1="78" x2="166" y2="78" stroke="#9ca3af"/>
<line x1="150" y1="92" x2="150" y2="112" stroke="#6b7280" stroke-width="1.4" marker-end="url(#a2)"/>

<rect x="95" y="116" width="110" height="32" rx="8" fill="#111111"/>
<text x="138" y="137" text-anchor="middle" fill="#ffffff" font-size="13" font-weight="600">compile</text>
<text x="190" y="137" text-anchor="end" fill="#ffffff" opacity="0.6" font-size="11">llm</text>
<line x1="150" y1="148" x2="150" y2="170" stroke="#6b7280" stroke-width="1.4" marker-end="url(#a2)"/>

<line x1="150" y1="208" x2="80" y2="288" stroke="#6b7280" stroke-width="1.2" marker-end="url(#a2)"/>
<text x="96" y="242" text-anchor="end" fill="#6b7280" font-size="11" font-family="ui-monospace, Menlo, monospace">derived-from</text>
<line x1="150" y1="208" x2="220" y2="288" stroke="#6b7280" stroke-width="1.2" stroke-dasharray="3 3" marker-end="url(#a2)"/>
<text x="204" y="242" fill="#6b7280" font-size="11" font-family="ui-monospace, Menlo, monospace">closes</text>
<line x1="80" y1="308" x2="140" y2="368" stroke="#6b7280" stroke-width="1.2" marker-end="url(#a2)"/>
<text x="96" y="346" text-anchor="end" fill="#6b7280" font-size="11" font-family="ui-monospace, Menlo, monospace">mentions</text>

<circle cx="150" cy="192" r="16" fill="#111111"/>
<rect x="168" y="168" width="14" height="14" rx="2" fill="none" stroke="#6b7280" stroke-dasharray="2.5 2.5"/>
<text x="188" y="179" fill="#6b7280" font-size="11" font-family="ui-monospace, Menlo, monospace">todo</text>
<text x="150" y="230" text-anchor="middle" fill="#111111" font-size="11" font-family="ui-monospace, Menlo, monospace">pricing-v2</text>

<circle cx="80" cy="298" r="13" fill="#fafafa" stroke="#6b7280" stroke-width="1.4"/>
<text x="80" y="328" text-anchor="middle" fill="#111111" font-size="11" font-family="ui-monospace, Menlo, monospace">per-seat</text>
<circle cx="220" cy="298" r="13" fill="none" stroke="#6b7280" stroke-width="1.4" stroke-dasharray="3 3"/>
<text x="220" y="328" text-anchor="middle" fill="#111111" font-size="11" font-family="ui-monospace, Menlo, monospace">pricing?</text>
<circle cx="150" cy="380" r="13" fill="#fafafa" stroke="#6b7280" stroke-width="1.4"/>
<text x="150" y="385" text-anchor="middle" fill="#111111" font-size="11">@</text>
<text x="150" y="410" text-anchor="middle" fill="#111111" font-size="11" font-family="ui-monospace, Menlo, monospace">Sarah</text>

<text x="150" y="452" text-anchor="middle" fill="#6b7280" font-size="11" font-family="ui-monospace, Menlo, monospace">● decision  ○ insight  ◌ question  □ think</text>

<line x1="252" y1="250" x2="316" y2="250" stroke="#6b7280" stroke-width="1.6" marker-end="url(#a2)"/>

<rect x="326" y="42" width="328" height="416" rx="12" fill="#ffffff" stroke="#d1d5db" stroke-width="1.5"/>
<rect x="342" y="58" width="104" height="24" rx="6" fill="#fafafa" stroke="#e5e7eb"/>
<text x="394" y="74" text-anchor="middle" fill="#111111" font-size="11" font-family="ui-monospace, Menlo, monospace">lmd source</text>
<text x="466" y="75" fill="#111111" font-size="16">≅</text>
<line x1="494" y1="70" x2="522" y2="70" stroke="#6b7280" stroke-width="1.2" marker-end="url(#a2)"/>
<text x="556" y="75" text-anchor="middle" fill="#6b7280" font-size="11">tables</text>

<g font-family="ui-monospace, Menlo, monospace">
<rect x="342" y="96" width="296" height="20" fill="#fafafa" stroke="#e5e7eb"/>
<text x="350" y="110" fill="#111111" font-size="11" font-weight="600">entities</text>
<rect x="342" y="116" width="296" height="18" fill="none" stroke="#e5e7eb"/>
<text x="350" y="129" fill="#6b7280" font-size="11">id</text><text x="412" y="129" fill="#6b7280" font-size="11">label</text><text x="548" y="129" fill="#6b7280" font-size="11">type</text>
<rect x="342" y="134" width="296" height="18" fill="none" stroke="#e5e7eb"/>
<text x="350" y="147" fill="#111111" font-size="11">lp_8f</text><text x="412" y="147" fill="#111111" font-size="11">pricing-v2</text><text x="548" y="147" fill="#111111" font-size="11">decision</text>
<rect x="342" y="152" width="296" height="18" fill="none" stroke="#e5e7eb"/>
<text x="350" y="165" fill="#111111" font-size="11">lp_91</text><text x="412" y="165" fill="#111111" font-size="11">per-seat</text><text x="548" y="165" fill="#111111" font-size="11">insight</text>
<rect x="342" y="170" width="296" height="18" fill="none" stroke="#e5e7eb"/>
<text x="350" y="183" fill="#111111" font-size="11">lp_2c</text><text x="412" y="183" fill="#111111" font-size="11">Sarah</text><text x="548" y="183" fill="#111111" font-size="11">person</text>
<rect x="343" y="135" width="294" height="16" fill="none" stroke="#111111" stroke-width="1.4"/>

<rect x="342" y="206" width="296" height="20" fill="#fafafa" stroke="#e5e7eb"/>
<text x="350" y="220" fill="#111111" font-size="11" font-weight="600">edges</text>
<rect x="342" y="226" width="296" height="18" fill="none" stroke="#e5e7eb"/>
<text x="350" y="239" fill="#6b7280" font-size="11">src</text><text x="412" y="239" fill="#6b7280" font-size="11">role</text><text x="548" y="239" fill="#6b7280" font-size="11">dst</text>
<rect x="342" y="244" width="296" height="18" fill="none" stroke="#e5e7eb"/>
<text x="350" y="257" fill="#111111" font-size="11">lp_8f</text><text x="412" y="257" fill="#111111" font-size="11">derived-from</text><text x="548" y="257" fill="#111111" font-size="11">lp_91</text>
<rect x="342" y="262" width="296" height="18" fill="none" stroke="#e5e7eb"/>
<text x="350" y="275" fill="#111111" font-size="11">lp_8f</text><text x="412" y="275" fill="#111111" font-size="11">closes</text><text x="548" y="275" fill="#111111" font-size="11">lp_7a</text>

<rect x="342" y="298" width="296" height="20" fill="#fafafa" stroke="#e5e7eb"/>
<text x="350" y="312" fill="#111111" font-size="11" font-weight="600">thinks</text>
<rect x="342" y="318" width="296" height="18" fill="none" stroke="#e5e7eb"/>
<text x="350" y="331" fill="#111111" font-size="11">lp_8f</text><text x="412" y="331" fill="#111111" font-size="11">todo</text><text x="548" y="331" fill="#111111" font-size="11">open</text>

<rect x="342" y="354" width="296" height="20" fill="#fafafa" stroke="#e5e7eb"/>
<text x="350" y="368" fill="#111111" font-size="11" font-weight="600">entities_fts · fts5</text>
<rect x="342" y="374" width="296" height="18" fill="none" stroke="#e5e7eb"/>
<text x="350" y="387" fill="#111111" font-size="11">pricing → {lp_8f, lp_7a}</text>
<rect x="342" y="392" width="296" height="18" fill="none" stroke="#e5e7eb"/>
<text x="350" y="405" fill="#6b7280" font-size="11">seat → {lp_91}</text>
<rect x="343" y="375" width="294" height="16" fill="none" stroke="#111111" stroke-width="1.4"/>
</g>
<text x="490" y="442" text-anchor="middle" fill="#6b7280" font-size="11" font-family="ui-monospace, Menlo, monospace">sqlite · in-process</text>

<rect x="700" y="44" width="220" height="30" rx="8" fill="#fafafa" stroke="#d1d5db"/>
<text x="810" y="64" text-anchor="middle" fill="#111111" font-size="12" font-family="ui-monospace, Menlo, monospace">find("pricing", k)</text>
<line x1="810" y1="74" x2="810" y2="96" stroke="#6b7280" stroke-width="1.4" marker-end="url(#a2)"/>

<path d="M760 112 Q680 130 646 380" fill="none" stroke="#6b7280" stroke-width="1.2" marker-end="url(#a2)"/>
<circle cx="700" cy="150" r="9" fill="#ffffff" stroke="#111111"/>
<text x="700" y="154" text-anchor="middle" fill="#111111" font-size="11">1</text>
<text x="712" y="154" fill="#6b7280" font-size="11" font-family="ui-monospace, Menlo, monospace">match · bm25</text>

<path d="M756 122 Q700 128 646 143" fill="none" stroke="#6b7280" stroke-width="1.2" marker-end="url(#a2)"/>
<circle cx="692" cy="120" r="9" fill="#ffffff" stroke="#111111"/>
<text x="692" y="124" text-anchor="middle" fill="#111111" font-size="11">2</text>
<text x="704" y="112" fill="#6b7280" font-size="11" font-family="ui-monospace, Menlo, monospace">select id in {…}</text>

<path d="M770 170 Q706 200 646 252" fill="none" stroke="#6b7280" stroke-width="1.2" marker-end="url(#a2)"/>
<circle cx="722" cy="196" r="9" fill="#ffffff" stroke="#111111"/>
<text x="722" y="200" text-anchor="middle" fill="#111111" font-size="11">3</text>
<text x="734" y="200" fill="#6b7280" font-size="11" font-family="ui-monospace, Menlo, monospace">walk src=lp_8f</text>

<rect x="756" y="104" width="80" height="80" rx="8" fill="#fafafa" stroke="#d1d5db"/>
<text x="796" y="148" text-anchor="middle" fill="#111111" font-size="12" font-family="ui-monospace, Menlo, monospace">engine</text>

<line x1="836" y1="144" x2="866" y2="144" stroke="#6b7280" stroke-width="1.4" marker-end="url(#a2)"/>

<rect x="880" y="120" width="82" height="46" rx="6" fill="#fafafa" stroke="#e5e7eb"/>
<rect x="874" y="126" width="82" height="46" rx="6" fill="#fafafa" stroke="#e5e7eb"/>
<rect x="868" y="132" width="82" height="46" rx="6" fill="#ffffff" stroke="#d1d5db"/>
<text x="909" y="151" text-anchor="middle" fill="#111111" font-size="11" font-family="ui-monospace, Menlo, monospace">lp_8f</text>
<text x="909" y="166" text-anchor="middle" fill="#6b7280" font-size="11" font-family="ui-monospace, Menlo, monospace">decision</text>
<text x="909" y="196" text-anchor="middle" fill="#6b7280" font-size="11">cards</text>

<line x1="909" y1="204" x2="909" y2="228" stroke="#6b7280" stroke-width="1.4" marker-end="url(#a2)"/>
<rect x="838" y="232" width="124" height="32" rx="8" fill="#111111"/>
<text x="888" y="253" text-anchor="middle" fill="#ffffff" font-size="13" font-weight="600">compose</text>
<text x="950" y="253" text-anchor="end" fill="#ffffff" opacity="0.6" font-size="11">llm</text>
<line x1="900" y1="264" x2="900" y2="288" stroke="#6b7280" stroke-width="1.4" marker-end="url(#a2)"/>
<rect x="822" y="292" width="140" height="30" rx="8" fill="#fafafa" stroke="#e5e7eb"/>
<text x="892" y="312" text-anchor="middle" fill="#111111" font-size="12" font-family="ui-monospace, Menlo, monospace">answer · 3 cited</text>
</svg>
